<svg width="70" height="70" viewBox="0 0 70 70" fill="none" xmlns="http://www.w3.org/2000/svg">
<path d="M69 34.7244C69 53.3424 53.7851 68.4488 35 68.4488C16.2149 68.4488 1 53.3424 1 34.7244C1 16.1064 16.2149 1 35 1C53.7851 1 69 16.1064 69 34.7244Z" stroke="white" stroke-width="2"/>
<ellipse cx="22.5984" cy="27.8346" rx="3.30709" ry="3.58268" fill="white"/>
<ellipse cx="46.2992" cy="27.8346" rx="3.30709" ry="3.58268" fill="white"/>
<path d="M13.2283 41.8898C15.9377 41.8898 18.5054 44.3024 20.5616 47.1941C23.7527 51.6818 26.6243 57.1235 32.0525 58.0496C34.734 58.5071 37.3845 58.2902 39.6893 57.7434C43.2227 56.9052 45.3403 53.6457 47.0968 50.4673C49.3868 46.3236 52.5001 43.01 54.0157 41.8898" stroke="white" stroke-width="2"/>
<path d="M20.6693 47.4016C27.7651 59.6686 44.9561 54.3529 48.504 47.9527" stroke="white" stroke-width="2"/>
</svg>
