<svg width="1735" height="492" viewBox="0 0 1735 492" fill="none" xmlns="http://www.w3.org/2000/svg">
<path d="M229.816 28.824V231H180.568V109.752L135.352 231H95.608L50.104 109.464V231H0.856001V28.824H59.032L115.768 168.792L171.928 28.824H229.816ZM289.999 53.592C281.359 53.592 274.255 51.096 268.687 46.104C263.311 40.92 260.623 34.584 260.623 27.096C260.623 19.416 263.311 13.08 268.687 8.08799C274.255 2.90398 281.359 0.311983 289.999 0.311983C298.447 0.311983 305.359 2.90398 310.735 8.08799C316.303 13.08 319.087 19.416 319.087 27.096C319.087 34.584 316.303 40.92 310.735 46.104C305.359 51.096 298.447 53.592 289.999 53.592ZM314.479 70.296V231H265.231V70.296H314.479ZM411.225 67.992C422.553 67.992 432.441 70.296 440.889 74.904C449.529 79.512 456.153 85.56 460.761 93.048V70.296H510.009V230.712C510.009 245.496 507.033 258.84 501.081 270.744C495.321 282.84 486.393 292.44 474.297 299.544C462.393 306.648 447.513 310.2 429.657 310.2C405.849 310.2 386.553 304.536 371.769 293.208C356.985 282.072 348.537 266.904 346.425 247.704H395.097C396.633 253.848 400.281 258.648 406.041 262.104C411.801 265.752 418.905 267.576 427.353 267.576C437.529 267.576 445.593 264.6 451.545 258.648C457.689 252.888 460.761 243.576 460.761 230.712V207.96C455.961 215.448 449.337 221.592 440.889 226.392C432.441 231 422.553 233.304 411.225 233.304C397.977 233.304 385.977 229.944 375.225 223.224C364.473 216.312 355.929 206.616 349.593 194.136C343.449 181.464 340.377 166.872 340.377 150.36C340.377 133.848 343.449 119.352 349.593 106.872C355.929 94.392 364.473 84.792 375.225 78.072C385.977 71.352 397.977 67.992 411.225 67.992ZM460.761 150.648C460.761 138.36 457.305 128.664 450.393 121.56C443.673 114.456 435.417 110.904 425.625 110.904C415.833 110.904 407.481 114.456 400.569 121.56C393.849 128.472 390.489 138.072 390.489 150.36C390.489 162.648 393.849 172.44 400.569 179.736C407.481 186.84 415.833 190.392 425.625 190.392C435.417 190.392 443.673 186.84 450.393 179.736C457.305 172.632 460.761 162.936 460.761 150.648ZM594.885 97.08C600.645 88.248 607.845 81.336 616.485 76.344C625.125 71.16 634.725 68.568 645.285 68.568V120.696H631.749C619.461 120.696 610.245 123.384 604.101 128.76C597.957 133.944 594.885 143.16 594.885 156.408V231H545.637V70.296H594.885V97.08ZM659.033 150.36C659.033 133.848 662.105 119.352 668.249 106.872C674.585 94.392 683.129 84.792 693.881 78.072C704.633 71.352 716.633 67.992 729.881 67.992C741.209 67.992 751.097 70.296 759.545 74.904C768.185 79.512 774.809 85.56 779.417 93.048V70.296H828.665V231H779.417V208.248C774.617 215.736 767.897 221.784 759.257 226.392C750.809 231 740.921 233.304 729.593 233.304C716.537 233.304 704.633 229.944 693.881 223.224C683.129 216.312 674.585 206.616 668.249 194.136C662.105 181.464 659.033 166.872 659.033 150.36ZM779.417 150.648C779.417 138.36 775.961 128.664 769.049 121.56C762.329 114.456 754.073 110.904 744.281 110.904C734.489 110.904 726.137 114.456 719.225 121.56C712.505 128.472 709.145 138.072 709.145 150.36C709.145 162.648 712.505 172.44 719.225 179.736C726.137 186.84 734.489 190.392 744.281 190.392C754.073 190.392 762.329 186.84 769.049 179.736C775.961 172.632 779.417 162.936 779.417 150.648ZM962.214 68.568C981.03 68.568 996.006 74.712 1007.14 87C1018.47 99.096 1024.13 115.8 1024.13 137.112V231H975.174V143.736C975.174 132.984 972.39 124.632 966.822 118.68C961.254 112.728 953.766 109.752 944.358 109.752C934.95 109.752 927.462 112.728 921.894 118.68C916.326 124.632 913.542 132.984 913.542 143.736V231H864.294V70.296H913.542V91.608C918.534 84.504 925.254 78.936 933.702 74.904C942.15 70.68 951.654 68.568 962.214 68.568ZM1147.92 189.24V231H1122.87C1105.01 231 1091.09 226.68 1081.11 218.04C1071.12 209.208 1066.13 194.904 1066.13 175.128V111.192H1046.55V70.296H1066.13V31.128H1115.38V70.296H1147.64V111.192H1115.38V175.704C1115.38 180.504 1116.53 183.96 1118.84 186.072C1121.14 188.184 1124.98 189.24 1130.36 189.24H1147.92ZM623.289 491.016C608.505 491.016 595.257 488.616 583.545 483.816C571.833 479.016 562.425 471.912 555.321 462.504C548.409 453.096 544.761 441.768 544.377 428.52H596.793C597.561 436.008 600.153 441.768 604.569 445.8C608.985 449.64 614.745 451.56 621.849 451.56C629.145 451.56 634.905 449.928 639.129 446.664C643.353 443.208 645.465 438.504 645.465 432.552C645.465 427.56 643.737 423.432 640.281 420.168C637.017 416.904 632.889 414.216 627.897 412.104C623.097 409.992 616.185 407.592 607.161 404.904C594.105 400.872 583.449 396.84 575.193 392.808C566.937 388.776 559.833 382.824 553.881 374.952C547.929 367.08 544.953 356.808 544.953 344.136C544.953 325.32 551.769 310.632 565.401 300.072C579.033 289.32 596.793 283.944 618.681 283.944C640.953 283.944 658.905 289.32 672.537 300.072C686.169 310.632 693.465 325.416 694.425 344.424H641.145C640.761 337.896 638.361 332.808 633.945 329.16C629.529 325.32 623.865 323.4 616.953 323.4C611.001 323.4 606.201 325.032 602.553 328.296C598.905 331.368 597.081 335.88 597.081 341.832C597.081 348.36 600.153 353.448 606.297 357.096C612.441 360.744 622.041 364.68 635.097 368.904C648.153 373.32 658.713 377.544 666.777 381.576C675.033 385.608 682.137 391.464 688.089 399.144C694.041 406.824 697.017 416.712 697.017 428.808C697.017 440.328 694.041 450.792 688.089 460.2C682.329 469.608 673.881 477.096 662.745 482.664C651.609 488.232 638.457 491.016 623.289 491.016ZM800.477 491.304C784.733 491.304 770.525 487.944 757.853 481.224C745.373 474.504 735.485 464.904 728.189 452.424C721.085 439.944 717.533 425.352 717.533 408.648C717.533 392.136 721.181 377.64 728.477 365.16C735.773 352.488 745.757 342.792 758.429 336.072C771.101 329.352 785.309 325.992 801.053 325.992C816.797 325.992 831.005 329.352 843.677 336.072C856.349 342.792 866.333 352.488 873.629 365.16C880.925 377.64 884.573 392.136 884.573 408.648C884.573 425.16 880.829 439.752 873.341 452.424C866.045 464.904 855.965 474.504 843.101 481.224C830.429 487.944 816.221 491.304 800.477 491.304ZM800.477 448.68C809.885 448.68 817.853 445.224 824.381 438.312C831.101 431.4 834.461 421.512 834.461 408.648C834.461 395.784 831.197 385.896 824.669 378.984C818.333 372.072 810.461 368.616 801.053 368.616C791.453 368.616 783.485 372.072 777.149 378.984C770.813 385.704 767.645 395.592 767.645 408.648C767.645 421.512 770.717 431.4 776.861 438.312C783.197 445.224 791.069 448.68 800.477 448.68ZM959.948 275.88V489H910.7V275.88H959.948ZM1154.33 328.296V489H1105.08V467.112C1100.09 474.216 1093.27 479.976 1084.63 484.392C1076.18 488.616 1066.77 490.728 1056.41 490.728C1044.12 490.728 1033.27 488.04 1023.86 482.664C1014.45 477.096 1007.16 469.128 1001.97 458.76C996.789 448.392 994.197 436.2 994.197 422.184V328.296H1043.16V415.56C1043.16 426.312 1045.94 434.664 1051.51 440.616C1057.08 446.568 1064.57 449.544 1073.97 449.544C1083.57 449.544 1091.16 446.568 1096.73 440.616C1102.29 434.664 1105.08 426.312 1105.08 415.56V328.296H1154.33ZM1279.27 447.24V489H1254.21C1236.36 489 1222.44 484.68 1212.45 476.04C1202.47 467.208 1197.48 452.904 1197.48 433.128V369.192H1177.89V328.296H1197.48V289.128H1246.72V328.296H1278.98V369.192H1246.72V433.704C1246.72 438.504 1247.88 441.96 1250.18 444.072C1252.48 446.184 1256.32 447.24 1261.7 447.24H1279.27ZM1331.47 311.592C1322.83 311.592 1315.72 309.096 1310.16 304.104C1304.78 298.92 1302.09 292.584 1302.09 285.096C1302.09 277.416 1304.78 271.08 1310.16 266.088C1315.72 260.904 1322.83 258.312 1331.47 258.312C1339.92 258.312 1346.83 260.904 1352.2 266.088C1357.77 271.08 1360.56 277.416 1360.56 285.096C1360.56 292.584 1357.77 298.92 1352.2 304.104C1346.83 309.096 1339.92 311.592 1331.47 311.592ZM1355.95 328.296V489H1306.7V328.296H1355.95ZM1464.79 491.304C1449.05 491.304 1434.84 487.944 1422.17 481.224C1409.69 474.504 1399.8 464.904 1392.5 452.424C1385.4 439.944 1381.85 425.352 1381.85 408.648C1381.85 392.136 1385.49 377.64 1392.79 365.16C1400.09 352.488 1410.07 342.792 1422.74 336.072C1435.41 329.352 1449.62 325.992 1465.37 325.992C1481.11 325.992 1495.32 329.352 1507.99 336.072C1520.66 342.792 1530.65 352.488 1537.94 365.16C1545.24 377.64 1548.89 392.136 1548.89 408.648C1548.89 425.16 1545.14 439.752 1537.65 452.424C1530.36 464.904 1520.28 474.504 1507.41 481.224C1494.74 487.944 1480.53 491.304 1464.79 491.304ZM1464.79 448.68C1474.2 448.68 1482.17 445.224 1488.69 438.312C1495.41 431.4 1498.77 421.512 1498.77 408.648C1498.77 395.784 1495.51 385.896 1488.98 378.984C1482.65 372.072 1474.77 368.616 1465.37 368.616C1455.77 368.616 1447.8 372.072 1441.46 378.984C1435.13 385.704 1431.96 395.592 1431.96 408.648C1431.96 421.512 1435.03 431.4 1441.17 438.312C1447.51 445.224 1455.38 448.68 1464.79 448.68ZM1672.93 326.568C1691.75 326.568 1706.72 332.712 1717.86 345C1729.19 357.096 1734.85 373.8 1734.85 395.112V489H1685.89V401.736C1685.89 390.984 1683.11 382.632 1677.54 376.68C1671.97 370.728 1664.48 367.752 1655.08 367.752C1645.67 367.752 1638.18 370.728 1632.61 376.68C1627.04 382.632 1624.26 390.984 1624.26 401.736V489H1575.01V328.296H1624.26V349.608C1629.25 342.504 1635.97 336.936 1644.42 332.904C1652.87 328.68 1662.37 326.568 1672.93 326.568Z" fill="#379CF5"/>
<path d="M229.816 28.824H234.816V23.824H229.816V28.824ZM229.816 231V236H234.816V231H229.816ZM180.568 231H175.568V236H180.568V231ZM180.568 109.752H185.568L175.883 108.005L180.568 109.752ZM135.352 231V236H138.824L140.037 232.747L135.352 231ZM95.608 231L90.9255 232.753L92.1411 236H95.608V231ZM50.104 109.464L54.7866 107.711L45.104 109.464H50.104ZM50.104 231V236H55.104V231H50.104ZM0.856001 231H-4.144V236H0.856001V231ZM0.856001 28.824V23.824H-4.144V28.824H0.856001ZM59.032 28.824L63.6658 26.9457L62.4004 23.824H59.032V28.824ZM115.768 168.792L111.134 170.67L115.792 182.16L120.408 170.654L115.768 168.792ZM171.928 28.824V23.824H168.547L167.288 26.9621L171.928 28.824ZM224.816 28.824V231H234.816V28.824H224.816ZM229.816 226H180.568V236H229.816V226ZM185.568 231V109.752H175.568V231H185.568ZM175.883 108.005L130.667 229.253L140.037 232.747L185.253 111.499L175.883 108.005ZM135.352 226H95.608V236H135.352V226ZM100.291 229.247L54.7866 107.711L45.4214 111.217L90.9255 232.753L100.291 229.247ZM45.104 109.464V231H55.104V109.464H45.104ZM50.104 226H0.856001V236H50.104V226ZM5.856 231V28.824H-4.144V231H5.856ZM0.856001 33.824H59.032V23.824H0.856001V33.824ZM54.3982 30.7023L111.134 170.67L120.402 166.914L63.6658 26.9457L54.3982 30.7023ZM120.408 170.654L176.568 30.6859L167.288 26.9621L111.128 166.93L120.408 170.654ZM171.928 33.824H229.816V23.824H171.928V33.824ZM268.687 46.104L265.216 49.7032L265.282 49.7662L265.349 49.8268L268.687 46.104ZM268.687 8.08799L272.089 11.752L272.094 11.7475L268.687 8.08799ZM310.735 8.08799L307.264 11.6872L307.33 11.7502L307.397 11.8108L310.735 8.08799ZM310.735 46.104L314.137 49.768L314.142 49.7635L310.735 46.104ZM314.479 70.296H319.479V65.296H314.479V70.296ZM314.479 231V236H319.479V231H314.479ZM265.231 231H260.231V236H265.231V231ZM265.231 70.296V65.296H260.231V70.296H265.231ZM289.999 48.592C282.387 48.592 276.534 46.4241 272.025 42.3811L265.349 49.8268C271.976 55.7678 280.331 58.592 289.999 58.592V48.592ZM272.158 42.5048C267.762 38.266 265.623 33.2304 265.623 27.096H255.623C255.623 35.9375 258.86 43.574 265.216 49.7032L272.158 42.5048ZM265.623 27.096C265.623 20.7329 267.785 15.7491 272.089 11.752L265.285 4.42402C258.837 10.4109 255.623 18.0991 255.623 27.096H265.623ZM272.094 11.7475C276.61 7.54312 282.439 5.31198 289.999 5.31198V-4.68802C280.279 -4.68802 271.9 -1.73516 265.28 4.42852L272.094 11.7475ZM289.999 5.31198C297.336 5.31198 302.945 7.52197 307.264 11.6872L314.206 4.48876C307.773 -1.714 299.558 -4.68802 289.999 -4.68802V5.31198ZM307.397 11.8108C311.875 15.8256 314.087 20.7931 314.087 27.096H324.087C324.087 18.0389 320.731 10.3343 314.073 4.36514L307.397 11.8108ZM314.087 27.096C314.087 33.171 311.898 38.1892 307.328 42.4445L314.142 49.7635C320.708 43.6508 324.087 35.997 324.087 27.096H314.087ZM307.333 42.44C303.022 46.4433 297.39 48.592 289.999 48.592V58.592C299.504 58.592 307.696 55.7487 314.137 49.768L307.333 42.44ZM309.479 70.296V231H319.479V70.296H309.479ZM314.479 226H265.231V236H314.479V226ZM270.231 231V70.296H260.231V231H270.231ZM265.231 75.296H314.479V65.296H265.231V75.296ZM440.889 74.904L438.494 79.2935L438.515 79.3047L438.536 79.3157L440.889 74.904ZM460.761 93.048L456.502 95.6685L465.761 110.713V93.048H460.761ZM460.761 70.296V65.296H455.761V70.296H460.761ZM510.009 70.296H515.009V65.296H510.009V70.296ZM501.081 270.744L496.608 268.508L496.587 268.551L496.566 268.594L501.081 270.744ZM474.297 299.544L471.764 295.233L471.749 295.241L471.734 295.25L474.297 299.544ZM371.769 293.208L374.81 289.239L374.793 289.227L374.777 289.214L371.769 293.208ZM346.425 247.704V242.704H340.844L341.454 248.251L346.425 247.704ZM395.097 247.704L399.947 246.491L399 242.704H395.097V247.704ZM406.041 262.104L408.716 257.88L408.665 257.848L408.613 257.817L406.041 262.104ZM451.545 258.648L448.125 255L448.066 255.055L448.009 255.112L451.545 258.648ZM460.761 207.96H465.761V190.895L456.551 205.262L460.761 207.96ZM440.889 226.392L443.283 230.781L443.321 230.761L443.359 230.739L440.889 226.392ZM375.225 223.224L372.521 227.43L372.548 227.447L372.575 227.464L375.225 223.224ZM349.593 194.136L345.093 196.317L345.113 196.359L345.134 196.399L349.593 194.136ZM349.593 106.872L345.134 104.609L345.12 104.636L345.107 104.664L349.593 106.872ZM375.225 78.072L377.874 82.312L377.874 82.312L375.225 78.072ZM450.393 121.56L446.76 124.996L446.784 125.022L446.809 125.047L450.393 121.56ZM400.569 121.56L396.985 118.073L396.984 118.075L400.569 121.56ZM400.569 179.736L396.891 183.123L396.937 183.174L396.985 183.223L400.569 179.736ZM450.393 179.736L446.809 176.249L446.784 176.274L446.76 176.3L450.393 179.736ZM411.225 72.992C421.864 72.992 430.901 75.1516 438.494 79.2935L443.283 70.5145C433.98 65.4403 423.241 62.992 411.225 62.992V72.992ZM438.536 79.3157C446.484 83.5549 452.411 89.0195 456.502 95.6685L465.019 90.4275C459.895 82.1005 452.573 75.4691 443.241 70.4922L438.536 79.3157ZM465.761 93.048V70.296H455.761V93.048H465.761ZM460.761 75.296H510.009V65.296H460.761V75.296ZM505.009 70.296V230.712H515.009V70.296H505.009ZM505.009 230.712C505.009 244.807 502.176 257.372 496.608 268.508L505.553 272.98C511.889 260.308 515.009 246.185 515.009 230.712H505.009ZM496.566 268.594C491.257 279.744 483.041 288.61 471.764 295.233L476.829 303.855C489.744 296.27 499.384 285.936 505.595 272.894L496.566 268.594ZM471.734 295.25C460.798 301.777 446.865 305.2 429.657 305.2V315.2C448.16 315.2 463.987 311.519 476.859 303.838L471.734 295.25ZM429.657 305.2C406.639 305.2 388.504 299.732 374.81 289.239L368.727 297.177C384.601 309.34 405.058 315.2 429.657 315.2V305.2ZM374.777 289.214C361.147 278.948 353.363 265.054 351.395 247.157L341.454 248.251C343.71 268.754 352.822 285.196 368.76 297.202L374.777 289.214ZM346.425 252.704H395.097V242.704H346.425V252.704ZM390.246 248.917C392.124 256.431 396.647 262.299 403.468 266.391L408.613 257.817C403.914 254.997 401.141 251.265 399.947 246.491L390.246 248.917ZM403.365 266.328C410.097 270.592 418.184 272.576 427.353 272.576V262.576C419.625 262.576 413.504 260.912 408.716 257.88L403.365 266.328ZM427.353 272.576C438.559 272.576 448 269.264 455.08 262.184L448.009 255.112C443.185 259.936 436.498 262.576 427.353 262.576V272.576ZM454.964 262.296C462.544 255.19 465.761 244.236 465.761 230.712H455.761C455.761 242.916 452.833 250.586 448.125 255L454.964 262.296ZM465.761 230.712V207.96H455.761V230.712H465.761ZM456.551 205.262C452.228 212.005 446.228 217.607 438.418 222.045L443.359 230.739C452.445 225.577 459.693 218.891 464.97 210.658L456.551 205.262ZM438.494 222.003C430.901 226.144 421.864 228.304 411.225 228.304V238.304C423.241 238.304 433.98 235.856 443.283 230.781L438.494 222.003ZM411.225 228.304C398.869 228.304 387.795 225.184 377.874 218.984L372.575 227.464C384.158 234.704 397.084 238.304 411.225 238.304V228.304ZM377.928 219.018C367.993 212.631 360.024 203.638 354.051 191.873L345.134 196.399C351.833 209.594 360.952 219.993 372.521 227.43L377.928 219.018ZM354.092 191.955C348.329 180.07 345.377 166.246 345.377 150.36H335.377C335.377 167.498 338.568 182.858 345.093 196.317L354.092 191.955ZM345.377 150.36C345.377 134.472 348.33 120.756 354.078 109.08L345.107 104.664C338.567 117.948 335.377 133.224 335.377 150.36H345.377ZM354.051 109.135C360.019 97.3797 367.972 88.5008 377.874 82.312L372.575 73.832C360.973 81.0832 351.838 91.4042 345.134 104.609L354.051 109.135ZM377.874 82.312C387.795 76.1115 398.869 72.992 411.225 72.992V62.992C397.084 62.992 384.158 66.5925 372.575 73.832L377.874 82.312ZM465.761 150.648C465.761 137.387 462.003 126.323 453.976 118.073L446.809 125.047C452.606 131.005 455.761 139.333 455.761 150.648H465.761ZM454.025 118.124C446.359 110.02 436.789 105.904 425.625 105.904V115.904C434.044 115.904 440.986 118.892 446.76 124.996L454.025 118.124ZM425.625 105.904C414.464 105.904 404.825 110.015 396.985 118.073L404.152 125.047C410.136 118.897 417.201 115.904 425.625 115.904V105.904ZM396.984 118.075C389.125 126.157 385.489 137.144 385.489 150.36H395.489C395.489 139 398.572 130.787 404.153 125.045L396.984 118.075ZM385.489 150.36C385.489 163.589 389.13 174.697 396.891 183.123L404.246 176.349C398.567 170.183 395.489 161.707 395.489 150.36H385.489ZM396.985 183.223C404.825 191.281 414.464 195.392 425.625 195.392V185.392C417.201 185.392 410.136 182.399 404.152 176.249L396.985 183.223ZM425.625 195.392C436.789 195.392 446.359 191.276 454.025 183.172L446.76 176.3C440.986 182.404 434.044 185.392 425.625 185.392V195.392ZM453.976 183.223C462.003 174.973 465.761 163.909 465.761 150.648H455.761C455.761 161.963 452.606 170.291 446.809 176.249L453.976 183.223ZM594.885 97.08H589.885V113.9L599.073 99.8113L594.885 97.08ZM616.485 76.344L618.987 80.6733L619.022 80.6527L619.058 80.6315L616.485 76.344ZM645.285 68.568H650.285V63.568H645.285V68.568ZM645.285 120.696V125.696H650.285V120.696H645.285ZM604.101 128.76L607.326 132.581L607.36 132.552L607.394 132.523L604.101 128.76ZM594.885 231V236H599.885V231H594.885ZM545.637 231H540.637V236H545.637V231ZM545.637 70.296V65.296H540.637V70.296H545.637ZM594.885 70.296H599.885V65.296H594.885V70.296ZM599.073 99.8113C604.429 91.5987 611.065 85.2502 618.987 80.6733L613.984 72.0147C604.625 77.4218 596.861 84.8973 590.697 94.3487L599.073 99.8113ZM619.058 80.6315C626.883 75.9366 635.586 73.568 645.285 73.568V63.568C633.865 63.568 623.368 66.3834 613.913 72.0565L619.058 80.6315ZM640.285 68.568V120.696H650.285V68.568H640.285ZM645.285 115.696H631.749V125.696H645.285V115.696ZM631.749 115.696C618.842 115.696 608.228 118.505 600.809 124.997L607.394 132.523C612.262 128.263 620.08 125.696 631.749 125.696V115.696ZM600.877 124.939C593.05 131.543 589.885 142.619 589.885 156.408H599.885C599.885 143.701 602.865 136.345 607.326 132.581L600.877 124.939ZM589.885 156.408V231H599.885V156.408H589.885ZM594.885 226H545.637V236H594.885V226ZM550.637 231V70.296H540.637V231H550.637ZM545.637 75.296H594.885V65.296H545.637V75.296ZM589.885 70.296V97.08H599.885V70.296H589.885ZM668.249 106.872L663.79 104.609L663.776 104.636L663.763 104.664L668.249 106.872ZM693.881 78.072L696.531 82.312L696.531 82.312L693.881 78.072ZM759.545 74.904L757.15 79.2935L757.171 79.3047L757.192 79.3157L759.545 74.904ZM779.417 93.048L775.158 95.6685L784.417 110.713V93.048H779.417ZM779.417 70.296V65.296H774.417V70.296H779.417ZM828.665 70.296H833.665V65.296H828.665V70.296ZM828.665 231V236H833.665V231H828.665ZM779.417 231H774.417V236H779.417V231ZM779.417 208.248H784.417V191.183L775.207 205.55L779.417 208.248ZM759.257 226.392L756.904 221.98L756.883 221.991L756.862 222.003L759.257 226.392ZM693.881 223.224L691.177 227.43L691.204 227.447L691.231 227.464L693.881 223.224ZM668.249 194.136L663.75 196.317L663.77 196.359L663.79 196.399L668.249 194.136ZM769.049 121.56L765.416 124.996L765.441 125.022L765.465 125.047L769.049 121.56ZM719.225 121.56L715.641 118.073L715.64 118.075L719.225 121.56ZM719.225 179.736L715.547 183.123L715.593 183.174L715.641 183.223L719.225 179.736ZM769.049 179.736L765.465 176.249L765.441 176.274L765.416 176.3L769.049 179.736ZM664.033 150.36C664.033 134.472 666.986 120.756 672.735 109.08L663.763 104.664C657.223 117.948 654.033 133.224 654.033 150.36H664.033ZM672.707 109.135C678.675 97.3797 686.629 88.5008 696.531 82.312L691.231 73.832C679.629 81.0832 670.494 91.4042 663.79 104.609L672.707 109.135ZM696.531 82.312C706.451 76.1115 717.526 72.992 729.881 72.992V62.992C715.74 62.992 702.814 66.5925 691.231 73.832L696.531 82.312ZM729.881 72.992C740.521 72.992 749.557 75.1516 757.15 79.2935L761.939 70.5145C752.636 65.4403 741.897 62.992 729.881 62.992V72.992ZM757.192 79.3157C765.14 83.5549 771.067 89.0195 775.158 95.6685L783.675 90.4275C778.551 82.1005 771.229 75.4691 761.898 70.4922L757.192 79.3157ZM784.417 93.048V70.296H774.417V93.048H784.417ZM779.417 75.296H828.665V65.296H779.417V75.296ZM823.665 70.296V231H833.665V70.296H823.665ZM828.665 226H779.417V236H828.665V226ZM784.417 231V208.248H774.417V231H784.417ZM775.207 205.55C770.915 212.246 764.867 217.733 756.904 221.98L761.61 230.804C770.927 225.835 778.319 219.226 783.626 210.946L775.207 205.55ZM756.862 222.003C749.269 226.144 740.233 228.304 729.593 228.304V238.304C741.609 238.304 752.348 235.856 761.651 230.781L756.862 222.003ZM729.593 228.304C717.445 228.304 706.464 225.192 696.531 218.984L691.231 227.464C702.802 234.696 715.629 238.304 729.593 238.304V228.304ZM696.585 219.018C686.649 212.631 678.68 203.638 672.707 191.873L663.79 196.399C670.489 209.594 679.608 219.993 691.177 227.43L696.585 219.018ZM672.748 191.955C666.986 180.07 664.033 166.246 664.033 150.36H654.033C654.033 167.498 657.224 182.858 663.75 196.317L672.748 191.955ZM784.417 150.648C784.417 137.387 780.659 126.323 772.632 118.073L765.465 125.047C771.263 131.005 774.417 139.333 774.417 150.648H784.417ZM772.681 118.124C765.015 110.02 755.445 105.904 744.281 105.904V115.904C752.701 115.904 759.642 118.892 765.416 124.996L772.681 118.124ZM744.281 105.904C733.12 105.904 723.481 110.015 715.641 118.073L722.808 125.047C728.792 118.897 735.857 115.904 744.281 115.904V105.904ZM715.64 118.075C707.782 126.157 704.145 137.144 704.145 150.36H714.145C714.145 139 717.228 130.787 722.81 125.045L715.64 118.075ZM704.145 150.36C704.145 163.589 707.786 174.697 715.547 183.123L722.902 176.349C717.224 170.183 714.145 161.707 714.145 150.36H704.145ZM715.641 183.223C723.481 191.281 733.12 195.392 744.281 195.392V185.392C735.857 185.392 728.792 182.399 722.808 176.249L715.641 183.223ZM744.281 195.392C755.445 195.392 765.015 191.276 772.681 183.172L765.416 176.3C759.642 182.404 752.701 185.392 744.281 185.392V195.392ZM772.632 183.223C780.659 174.973 784.417 163.909 784.417 150.648H774.417C774.417 161.963 771.263 170.291 765.465 176.249L772.632 183.223ZM1007.14 87L1003.44 90.3576L1003.46 90.3879L1003.49 90.4178L1007.14 87ZM1024.13 231V236H1029.13V231H1024.13ZM975.174 231H970.174V236H975.174V231ZM966.822 118.68L963.17 122.096L963.17 122.096L966.822 118.68ZM921.894 118.68L925.545 122.096L925.545 122.096L921.894 118.68ZM913.542 231V236H918.542V231H913.542ZM864.294 231H859.294V236H864.294V231ZM864.294 70.296V65.296H859.294V70.296H864.294ZM913.542 70.296H918.542V65.296H913.542V70.296ZM913.542 91.608H908.542V107.42L917.632 94.4827L913.542 91.608ZM933.702 74.904L935.855 79.4164L935.897 79.3966L935.938 79.3761L933.702 74.904ZM962.214 73.568C979.828 73.568 993.381 79.2617 1003.44 90.3576L1010.85 83.6424C998.63 70.1623 982.231 63.568 962.214 63.568V73.568ZM1003.49 90.4178C1013.73 101.345 1019.13 116.693 1019.13 137.112H1029.13C1029.13 114.907 1023.21 96.8469 1010.79 83.5822L1003.49 90.4178ZM1019.13 137.112V231H1029.13V137.112H1019.13ZM1024.13 226H975.174V236H1024.13V226ZM980.174 231V143.736H970.174V231H980.174ZM980.174 143.736C980.174 132.131 977.155 122.407 970.473 115.264L963.17 122.096C967.624 126.857 970.174 133.837 970.174 143.736H980.174ZM970.473 115.264C963.811 108.143 954.916 104.752 944.358 104.752V114.752C952.615 114.752 958.696 117.313 963.17 122.096L970.473 115.264ZM944.358 104.752C933.799 104.752 924.904 108.143 918.242 115.264L925.545 122.096C930.019 117.313 936.1 114.752 944.358 114.752V104.752ZM918.242 115.264C911.56 122.407 908.542 132.131 908.542 143.736H918.542C918.542 133.837 921.091 126.857 925.545 122.096L918.242 115.264ZM908.542 143.736V231H918.542V143.736H908.542ZM913.542 226H864.294V236H913.542V226ZM869.294 231V70.296H859.294V231H869.294ZM864.294 75.296H913.542V65.296H864.294V75.296ZM908.542 70.296V91.608H918.542V70.296H908.542ZM917.632 94.4827C922.092 88.1366 928.12 83.1079 935.855 79.4164L931.548 70.3916C922.387 74.764 914.975 80.8714 909.451 88.7333L917.632 94.4827ZM935.938 79.3761C943.613 75.5384 952.337 73.568 962.214 73.568V63.568C950.97 63.568 940.686 65.8215 931.465 70.4318L935.938 79.3761ZM1147.92 189.24H1152.92V184.24H1147.92V189.24ZM1147.92 231V236H1152.92V231H1147.92ZM1081.11 218.04L1077.8 221.785L1077.82 221.803L1077.84 221.821L1081.11 218.04ZM1066.13 111.192H1071.13V106.192H1066.13V111.192ZM1046.55 111.192H1041.55V116.192H1046.55V111.192ZM1046.55 70.296V65.296H1041.55V70.296H1046.55ZM1066.13 70.296V75.296H1071.13V70.296H1066.13ZM1066.13 31.128V26.128H1061.13V31.128H1066.13ZM1115.38 31.128H1120.38V26.128H1115.38V31.128ZM1115.38 70.296H1110.38V75.296H1115.38V70.296ZM1147.64 70.296H1152.64V65.296H1147.64V70.296ZM1147.64 111.192V116.192H1152.64V111.192H1147.64ZM1115.38 111.192V106.192H1110.38V111.192H1115.38ZM1118.84 186.072L1115.46 189.758L1115.46 189.758L1118.84 186.072ZM1142.92 189.24V231H1152.92V189.24H1142.92ZM1147.92 226H1122.87V236H1147.92V226ZM1122.87 226C1105.79 226 1093.18 221.873 1084.38 214.259L1077.84 221.821C1089.01 231.487 1104.24 236 1122.87 236V226ZM1084.42 214.295C1075.94 206.794 1071.13 194.173 1071.13 175.128H1061.13C1061.13 195.635 1066.31 211.622 1077.8 221.785L1084.42 214.295ZM1071.13 175.128V111.192H1061.13V175.128H1071.13ZM1066.13 106.192H1046.55V116.192H1066.13V106.192ZM1051.55 111.192V70.296H1041.55V111.192H1051.55ZM1046.55 75.296H1066.13V65.296H1046.55V75.296ZM1071.13 70.296V31.128H1061.13V70.296H1071.13ZM1066.13 36.128H1115.38V26.128H1066.13V36.128ZM1110.38 31.128V70.296H1120.38V31.128H1110.38ZM1115.38 75.296H1147.64V65.296H1115.38V75.296ZM1142.64 70.296V111.192H1152.64V70.296H1142.64ZM1147.64 106.192H1115.38V116.192H1147.64V106.192ZM1110.38 111.192V175.704H1120.38V111.192H1110.38ZM1110.38 175.704C1110.38 181.16 1111.68 186.291 1115.46 189.758L1122.21 182.386C1121.39 181.629 1120.38 179.848 1120.38 175.704H1110.38ZM1115.46 189.758C1119.15 193.145 1124.56 194.24 1130.36 194.24V184.24C1125.4 184.24 1123.13 183.223 1122.21 182.386L1115.46 189.758ZM1130.36 194.24H1147.92V184.24H1130.36V194.24ZM583.545 483.816L581.649 488.443L581.649 488.443L583.545 483.816ZM555.321 462.504L551.292 465.464L551.311 465.491L551.331 465.517L555.321 462.504ZM544.377 428.52V423.52H539.23L539.379 428.665L544.377 428.52ZM596.793 428.52L601.767 428.01L601.307 423.52H596.793V428.52ZM604.569 445.8L601.198 449.492L601.243 449.533L601.288 449.573L604.569 445.8ZM639.129 446.664L642.186 450.62L642.242 450.578L642.295 450.534L639.129 446.664ZM640.281 420.168L636.746 423.704L636.796 423.754L636.848 423.803L640.281 420.168ZM627.897 412.104L625.884 416.681L625.916 416.695L625.949 416.709L627.897 412.104ZM607.161 404.904L605.686 409.681L605.71 409.689L605.734 409.696L607.161 404.904ZM553.881 374.952L557.87 371.936L557.87 371.936L553.881 374.952ZM565.401 300.072L568.463 304.025L568.481 304.011L568.498 303.998L565.401 300.072ZM672.537 300.072L669.441 303.998L669.458 304.011L669.475 304.025L672.537 300.072ZM694.425 344.424V349.424H699.684L699.419 344.172L694.425 344.424ZM641.145 344.424L636.154 344.718L636.431 349.424H641.145V344.424ZM633.945 329.16L630.664 332.933L630.712 332.975L630.761 333.015L633.945 329.16ZM602.553 328.296L605.774 332.121L605.831 332.072L605.887 332.022L602.553 328.296ZM606.297 357.096L608.85 352.797L608.85 352.797L606.297 357.096ZM635.097 368.904L636.699 364.168L636.668 364.157L636.636 364.147L635.097 368.904ZM666.777 381.576L664.541 386.048L664.562 386.059L664.583 386.069L666.777 381.576ZM688.089 399.144L684.137 402.207L684.137 402.207L688.089 399.144ZM688.089 460.2L683.864 457.527L683.844 457.558L683.825 457.589L688.089 460.2ZM662.745 482.664L660.509 478.192L660.509 478.192L662.745 482.664ZM623.289 486.016C609.048 486.016 596.459 483.705 585.441 479.189L581.649 488.443C594.055 493.527 607.963 496.016 623.289 496.016V486.016ZM585.441 479.189C574.496 474.704 565.835 468.13 559.311 459.491L551.331 465.517C559.016 475.694 569.17 483.328 581.649 488.443L585.441 479.189ZM559.351 459.544C553.119 451.062 549.734 440.75 549.375 428.375L539.379 428.665C539.789 442.786 543.699 455.13 551.292 465.464L559.351 459.544ZM544.377 433.52H596.793V423.52H544.377V433.52ZM591.819 429.03C592.679 437.412 595.658 444.434 601.198 449.492L607.941 442.108C604.648 439.102 602.443 434.604 601.767 428.01L591.819 429.03ZM601.288 449.573C606.799 454.365 613.809 456.56 621.849 456.56V446.56C615.682 446.56 611.172 444.915 607.85 442.027L601.288 449.573ZM621.849 456.56C629.851 456.56 636.815 454.771 642.186 450.62L636.072 442.708C632.995 445.085 628.44 446.56 621.849 446.56V456.56ZM642.295 450.534C647.795 446.034 650.465 439.849 650.465 432.552H640.465C640.465 437.159 638.912 440.382 635.963 442.794L642.295 450.534ZM650.465 432.552C650.465 426.262 648.225 420.793 643.714 416.533L636.848 423.803C639.249 426.071 640.465 428.858 640.465 432.552H650.465ZM643.817 416.632C640.025 412.841 635.329 409.819 629.845 407.499L625.949 416.709C630.45 418.613 634.009 420.967 636.746 423.704L643.817 416.632ZM629.911 407.527C624.827 405.29 617.682 402.821 608.589 400.112L605.734 409.696C614.688 412.363 621.368 414.694 625.884 416.681L629.911 407.527ZM608.637 400.127C595.721 396.138 585.329 392.194 577.387 388.315L572.999 397.301C581.569 401.486 592.49 405.606 605.686 409.681L608.637 400.127ZM577.387 388.315C569.889 384.653 563.384 379.229 557.87 371.936L549.893 377.968C556.283 386.419 563.986 392.899 572.999 397.301L577.387 388.315ZM557.87 371.936C552.74 365.152 549.953 356.031 549.953 344.136H539.953C539.953 357.585 543.119 369.008 549.893 377.968L557.87 371.936ZM549.953 344.136C549.953 326.704 556.176 313.543 568.463 304.025L562.339 296.119C547.362 307.721 539.953 323.936 539.953 344.136H549.953ZM568.498 303.998C581.039 294.106 597.618 288.944 618.681 288.944V278.944C595.968 278.944 577.028 284.534 562.305 296.146L568.498 303.998ZM618.681 288.944C640.151 288.944 656.914 294.118 669.441 303.998L675.634 296.146C660.896 284.522 641.755 278.944 618.681 278.944V288.944ZM669.475 304.025C681.827 313.593 688.537 326.954 689.432 344.676L699.419 344.172C698.394 323.878 690.512 307.671 675.599 296.119L669.475 304.025ZM694.425 339.424H641.145V349.424H694.425V339.424ZM646.137 344.13C645.684 336.432 642.773 329.967 637.13 325.305L630.761 333.015C633.95 335.649 635.839 339.36 636.154 344.718L646.137 344.13ZM637.226 325.387C631.74 320.617 624.841 318.4 616.953 318.4V328.4C622.89 328.4 627.318 330.023 630.664 332.933L637.226 325.387ZM616.953 318.4C610.05 318.4 603.972 320.317 599.219 324.57L605.887 332.022C608.43 329.747 611.953 328.4 616.953 328.4V318.4ZM599.333 324.471C594.284 328.723 592.081 334.803 592.081 341.832H602.081C602.081 336.957 603.526 334.013 605.774 332.121L599.333 324.471ZM592.081 341.832C592.081 350.317 596.257 356.949 603.745 361.395L608.85 352.797C604.05 349.947 602.081 346.403 602.081 341.832H592.081ZM603.745 361.395C610.38 365.335 620.409 369.407 633.558 373.661L636.636 364.147C623.674 359.953 614.503 356.153 608.85 352.797L603.745 361.395ZM633.495 373.64C646.435 378.017 656.759 382.157 664.541 386.048L669.013 377.104C660.667 372.931 649.872 368.623 636.699 364.168L633.495 373.64ZM664.583 386.069C672.112 389.746 678.626 395.096 684.137 402.207L692.041 396.081C685.648 387.832 677.955 381.47 668.971 377.083L664.583 386.069ZM684.137 402.207C689.258 408.814 692.017 417.544 692.017 428.808H702.017C702.017 415.88 698.825 404.834 692.041 396.081L684.137 402.207ZM692.017 428.808C692.017 439.416 689.292 448.947 683.864 457.527L692.315 462.873C698.791 452.637 702.017 441.24 702.017 428.808H692.017ZM683.825 457.589C678.614 466.1 670.919 472.987 660.509 478.192L664.981 487.136C676.844 481.205 686.044 473.116 692.354 462.811L683.825 457.589ZM660.509 478.192C650.203 483.345 637.848 486.016 623.289 486.016V496.016C639.067 496.016 653.016 493.119 664.981 487.136L660.509 478.192ZM757.853 481.224L755.482 485.626L755.496 485.634L755.51 485.641L757.853 481.224ZM728.189 452.424L723.843 454.897L723.858 454.923L723.872 454.947L728.189 452.424ZM728.477 365.16L732.793 367.683L732.802 367.669L732.81 367.655L728.477 365.16ZM758.429 336.072L760.771 340.489L760.771 340.489L758.429 336.072ZM843.677 336.072L841.334 340.489L841.334 340.489L843.677 336.072ZM873.629 365.16L869.296 367.655L869.304 367.669L869.312 367.683L873.629 365.16ZM873.341 452.424L869.036 449.88L869.03 449.89L869.024 449.901L873.341 452.424ZM843.101 481.224L840.786 476.792L840.772 476.799L840.758 476.807L843.101 481.224ZM824.381 438.312L820.796 434.827L820.771 434.853L820.746 434.879L824.381 438.312ZM824.669 378.984L820.983 382.363L821.008 382.39L821.034 382.417L824.669 378.984ZM777.149 378.984L780.787 382.414L780.811 382.389L780.835 382.363L777.149 378.984ZM776.861 438.312L773.124 441.634L773.149 441.662L773.175 441.691L776.861 438.312ZM800.477 486.304C785.468 486.304 772.077 483.108 760.195 476.807L755.51 485.641C768.972 492.78 783.997 496.304 800.477 496.304V486.304ZM760.223 476.822C748.569 470.546 739.347 461.604 732.505 449.901L723.872 454.947C731.622 468.204 742.176 478.462 755.482 485.626L760.223 476.822ZM732.534 449.951C725.925 438.339 722.533 424.628 722.533 408.648H712.533C712.533 426.076 716.245 441.549 723.843 454.897L732.534 449.951ZM722.533 408.648C722.533 392.895 726.005 379.294 732.793 367.683L724.16 362.637C716.356 375.986 712.533 391.377 712.533 408.648H722.533ZM732.81 367.655C739.646 355.781 748.947 346.76 760.771 340.489L756.086 331.655C742.566 338.824 731.899 349.195 724.144 362.665L732.81 367.655ZM760.771 340.489C772.653 334.188 786.044 330.992 801.053 330.992V320.992C784.573 320.992 769.548 324.516 756.086 331.655L760.771 340.489ZM801.053 330.992C816.061 330.992 829.452 334.188 841.334 340.489L846.019 331.655C832.557 324.516 817.532 320.992 801.053 320.992V330.992ZM841.334 340.489C853.158 346.76 862.459 355.781 869.296 367.655L877.962 362.665C870.206 349.195 859.539 338.824 846.019 331.655L841.334 340.489ZM869.312 367.683C876.1 379.294 879.573 392.895 879.573 408.648H889.573C889.573 391.377 885.749 375.986 877.945 362.637L869.312 367.683ZM879.573 408.648C879.573 424.377 876.015 438.069 869.036 449.88L877.645 454.968C885.642 441.435 889.573 425.943 889.573 408.648H879.573ZM869.024 449.901C862.205 461.566 852.82 470.506 840.786 476.792L845.416 485.656C859.11 478.502 869.885 468.242 877.657 454.947L869.024 449.901ZM840.758 476.807C828.876 483.108 815.485 486.304 800.477 486.304V496.304C816.956 496.304 831.981 492.78 845.443 485.641L840.758 476.807ZM800.477 453.68C811.277 453.68 820.555 449.645 828.016 441.745L820.746 434.879C815.151 440.803 808.493 443.68 800.477 443.68V453.68ZM827.966 441.797C835.863 433.674 839.461 422.366 839.461 408.648H829.461C829.461 420.658 826.338 429.126 820.796 434.827L827.966 441.797ZM839.461 408.648C839.461 394.967 835.98 383.678 828.304 375.551L821.034 382.417C826.414 388.114 829.461 396.601 829.461 408.648H839.461ZM828.355 375.605C821.068 367.656 811.857 363.616 801.053 363.616V373.616C809.065 373.616 815.598 376.488 820.983 382.363L828.355 375.605ZM801.053 363.616C790.089 363.616 780.771 367.633 773.463 375.605L780.835 382.363C786.198 376.511 792.816 373.616 801.053 373.616V363.616ZM773.511 375.554C765.995 383.526 762.645 394.845 762.645 408.648H772.645C772.645 396.339 775.631 387.882 780.787 382.414L773.511 375.554ZM762.645 408.648C762.645 422.258 765.896 433.503 773.124 441.634L780.598 434.99C775.537 429.297 772.645 420.766 772.645 408.648H762.645ZM773.175 441.691C780.462 449.64 789.673 453.68 800.477 453.68V443.68C792.465 443.68 785.932 440.808 780.547 434.933L773.175 441.691ZM959.948 275.88H964.948V270.88H959.948V275.88ZM959.948 489V494H964.948V489H959.948ZM910.7 489H905.7V494H910.7V489ZM910.7 275.88V270.88H905.7V275.88H910.7ZM954.948 275.88V489H964.948V275.88H954.948ZM959.948 484H910.7V494H959.948V484ZM915.7 489V275.88H905.7V489H915.7ZM910.7 280.88H959.948V270.88H910.7V280.88ZM1154.33 328.296H1159.33V323.296H1154.33V328.296ZM1154.33 489V494H1159.33V489H1154.33ZM1105.08 489H1100.08V494H1105.08V489ZM1105.08 467.112H1110.08V451.3L1100.99 464.237L1105.08 467.112ZM1084.63 484.392L1086.87 488.864L1086.89 488.854L1086.9 488.844L1084.63 484.392ZM1023.86 482.664L1021.31 486.967L1021.35 486.986L1021.38 487.005L1023.86 482.664ZM1001.97 458.76L997.501 460.996L997.501 460.996L1001.97 458.76ZM994.197 328.296V323.296H989.197V328.296H994.197ZM1043.16 328.296H1048.16V323.296H1043.16V328.296ZM1051.51 440.616L1047.86 444.032L1047.86 444.032L1051.51 440.616ZM1105.08 328.296V323.296H1100.08V328.296H1105.08ZM1149.33 328.296V489H1159.33V328.296H1149.33ZM1154.33 484H1105.08V494H1154.33V484ZM1110.08 489V467.112H1100.08V489H1110.08ZM1100.99 464.237C1096.51 470.6 1090.36 475.85 1082.35 479.94L1086.9 488.844C1096.18 484.102 1103.66 477.832 1109.17 469.987L1100.99 464.237ZM1082.39 479.92C1074.71 483.764 1066.07 485.728 1056.41 485.728V495.728C1067.47 495.728 1077.66 493.468 1086.87 488.864L1082.39 479.92ZM1056.41 485.728C1044.87 485.728 1034.9 483.212 1026.34 478.323L1021.38 487.005C1031.64 492.868 1043.37 495.728 1056.41 495.728V485.728ZM1026.41 478.361C1017.88 473.313 1011.23 466.087 1006.45 456.524L997.501 460.996C1003.09 472.169 1011.03 480.879 1021.31 486.967L1026.41 478.361ZM1006.45 456.524C1001.67 446.981 999.197 435.584 999.197 422.184H989.197C989.197 436.816 991.905 449.803 997.501 460.996L1006.45 456.524ZM999.197 422.184V328.296H989.197V422.184H999.197ZM994.197 333.296H1043.16V323.296H994.197V333.296ZM1038.16 328.296V415.56H1048.16V328.296H1038.16ZM1038.16 415.56C1038.16 427.165 1041.18 436.889 1047.86 444.032L1055.16 437.2C1050.71 432.439 1048.16 425.459 1048.16 415.56H1038.16ZM1047.86 444.032C1054.52 451.153 1063.42 454.544 1073.97 454.544V444.544C1065.72 444.544 1059.63 441.983 1055.16 437.2L1047.86 444.032ZM1073.97 454.544C1084.69 454.544 1093.69 451.175 1100.38 444.032L1093.07 437.2C1088.62 441.961 1082.46 444.544 1073.97 444.544V454.544ZM1100.38 444.032C1107.06 436.889 1110.08 427.165 1110.08 415.56H1100.08C1100.08 425.459 1097.53 432.439 1093.07 437.2L1100.38 444.032ZM1110.08 415.56V328.296H1100.08V415.56H1110.08ZM1105.08 333.296H1154.33V323.296H1105.08V333.296ZM1279.27 447.24H1284.27V442.24H1279.27V447.24ZM1279.27 489V494H1284.27V489H1279.27ZM1212.45 476.04L1209.14 479.785L1209.16 479.803L1209.18 479.821L1212.45 476.04ZM1197.48 369.192H1202.48V364.192H1197.48V369.192ZM1177.89 369.192H1172.89V374.192H1177.89V369.192ZM1177.89 328.296V323.296H1172.89V328.296H1177.89ZM1197.48 328.296V333.296H1202.48V328.296H1197.48ZM1197.48 289.128V284.128H1192.48V289.128H1197.48ZM1246.72 289.128H1251.72V284.128H1246.72V289.128ZM1246.72 328.296H1241.72V333.296H1246.72V328.296ZM1278.98 328.296H1283.98V323.296H1278.98V328.296ZM1278.98 369.192V374.192H1283.98V369.192H1278.98ZM1246.72 369.192V364.192H1241.72V369.192H1246.72ZM1250.18 444.072L1246.8 447.758L1246.8 447.758L1250.18 444.072ZM1274.27 447.24V489H1284.27V447.24H1274.27ZM1279.27 484H1254.21V494H1279.27V484ZM1254.21 484C1237.13 484 1224.52 479.873 1215.72 472.259L1209.18 479.821C1220.35 489.487 1235.58 494 1254.21 494V484ZM1215.76 472.295C1207.29 464.794 1202.48 452.173 1202.48 433.128H1192.48C1192.48 453.635 1197.65 469.622 1209.14 479.785L1215.76 472.295ZM1202.48 433.128V369.192H1192.48V433.128H1202.48ZM1197.48 364.192H1177.89V374.192H1197.48V364.192ZM1182.89 369.192V328.296H1172.89V369.192H1182.89ZM1177.89 333.296H1197.48V323.296H1177.89V333.296ZM1202.48 328.296V289.128H1192.48V328.296H1202.48ZM1197.48 294.128H1246.72V284.128H1197.48V294.128ZM1241.72 289.128V328.296H1251.72V289.128H1241.72ZM1246.72 333.296H1278.98V323.296H1246.72V333.296ZM1273.98 328.296V369.192H1283.98V328.296H1273.98ZM1278.98 364.192H1246.72V374.192H1278.98V364.192ZM1241.72 369.192V433.704H1251.72V369.192H1241.72ZM1241.72 433.704C1241.72 439.16 1243.02 444.291 1246.8 447.758L1253.56 440.386C1252.73 439.629 1251.72 437.848 1251.72 433.704H1241.72ZM1246.8 447.758C1250.5 451.145 1255.9 452.24 1261.7 452.24V442.24C1256.75 442.24 1254.47 441.223 1253.56 440.386L1246.8 447.758ZM1261.7 452.24H1279.27V442.24H1261.7V452.24ZM1310.16 304.104L1306.69 307.703L1306.75 307.766L1306.82 307.827L1310.16 304.104ZM1310.16 266.088L1313.56 269.752L1313.56 269.747L1310.16 266.088ZM1352.2 266.088L1348.73 269.687L1348.8 269.75L1348.87 269.811L1352.2 266.088ZM1352.2 304.104L1355.61 307.768L1355.61 307.763L1352.2 304.104ZM1355.95 328.296H1360.95V323.296H1355.95V328.296ZM1355.95 489V494H1360.95V489H1355.95ZM1306.7 489H1301.7V494H1306.7V489ZM1306.7 328.296V323.296H1301.7V328.296H1306.7ZM1331.47 306.592C1323.86 306.592 1318 304.424 1313.49 300.381L1306.82 307.827C1313.44 313.768 1321.8 316.592 1331.47 316.592V306.592ZM1313.63 300.505C1309.23 296.266 1307.09 291.23 1307.09 285.096H1297.09C1297.09 293.938 1300.33 301.574 1306.69 307.703L1313.63 300.505ZM1307.09 285.096C1307.09 278.733 1309.25 273.749 1313.56 269.752L1306.75 262.424C1300.31 268.411 1297.09 276.099 1297.09 285.096H1307.09ZM1313.56 269.747C1318.08 265.543 1323.91 263.312 1331.47 263.312V253.312C1321.75 253.312 1313.37 256.265 1306.75 262.429L1313.56 269.747ZM1331.47 263.312C1338.81 263.312 1344.41 265.522 1348.73 269.687L1355.67 262.489C1349.24 256.286 1341.03 253.312 1331.47 253.312V263.312ZM1348.87 269.811C1353.34 273.826 1355.56 278.793 1355.56 285.096H1365.56C1365.56 276.039 1362.2 268.334 1355.54 262.365L1348.87 269.811ZM1355.56 285.096C1355.56 291.171 1353.37 296.189 1348.8 300.445L1355.61 307.763C1362.18 301.651 1365.56 293.997 1365.56 285.096H1355.56ZM1348.8 300.44C1344.49 304.443 1338.86 306.592 1331.47 306.592V316.592C1340.97 316.592 1349.17 313.749 1355.61 307.768L1348.8 300.44ZM1350.95 328.296V489H1360.95V328.296H1350.95ZM1355.95 484H1306.7V494H1355.95V484ZM1311.7 489V328.296H1301.7V489H1311.7ZM1306.7 333.296H1355.95V323.296H1306.7V333.296ZM1422.17 481.224L1419.79 485.626L1419.81 485.634L1419.82 485.641L1422.17 481.224ZM1392.5 452.424L1388.16 454.897L1388.17 454.923L1388.18 454.947L1392.5 452.424ZM1392.79 365.16L1397.11 367.683L1397.11 367.669L1397.12 367.655L1392.79 365.16ZM1422.74 336.072L1425.08 340.489L1425.08 340.489L1422.74 336.072ZM1507.99 336.072L1505.65 340.489L1505.65 340.489L1507.99 336.072ZM1537.94 365.16L1533.61 367.655L1533.62 367.669L1533.62 367.683L1537.94 365.16ZM1537.65 452.424L1533.35 449.88L1533.34 449.89L1533.34 449.901L1537.65 452.424ZM1507.41 481.224L1505.1 476.792L1505.08 476.799L1505.07 476.807L1507.41 481.224ZM1488.69 438.312L1485.11 434.827L1485.08 434.853L1485.06 434.879L1488.69 438.312ZM1488.98 378.984L1485.3 382.363L1485.32 382.39L1485.35 382.417L1488.98 378.984ZM1441.46 378.984L1445.1 382.414L1445.12 382.389L1445.15 382.363L1441.46 378.984ZM1441.17 438.312L1437.44 441.634L1437.46 441.662L1437.49 441.691L1441.17 438.312ZM1464.79 486.304C1449.78 486.304 1436.39 483.108 1424.51 476.807L1419.82 485.641C1433.28 492.78 1448.31 496.304 1464.79 496.304V486.304ZM1424.54 476.822C1412.88 470.546 1403.66 461.604 1396.82 449.901L1388.18 454.947C1395.93 468.204 1406.49 478.462 1419.79 485.626L1424.54 476.822ZM1396.85 449.951C1390.24 438.339 1386.85 424.628 1386.85 408.648H1376.85C1376.85 426.076 1380.56 441.549 1388.16 454.897L1396.85 449.951ZM1386.85 408.648C1386.85 392.895 1390.32 379.294 1397.11 367.683L1388.47 362.637C1380.67 375.986 1376.85 391.377 1376.85 408.648H1386.85ZM1397.12 367.655C1403.96 355.781 1413.26 346.76 1425.08 340.489L1420.4 331.655C1406.88 338.824 1396.21 349.195 1388.46 362.665L1397.12 367.655ZM1425.08 340.489C1436.97 334.188 1450.36 330.992 1465.37 330.992V320.992C1448.89 320.992 1433.86 324.516 1420.4 331.655L1425.08 340.489ZM1465.37 330.992C1480.37 330.992 1493.76 334.188 1505.65 340.489L1510.33 331.655C1496.87 324.516 1481.84 320.992 1465.37 320.992V330.992ZM1505.65 340.489C1517.47 346.76 1526.77 355.781 1533.61 367.655L1542.27 362.665C1534.52 349.195 1523.85 338.824 1510.33 331.655L1505.65 340.489ZM1533.62 367.683C1540.41 379.294 1543.89 392.895 1543.89 408.648H1553.89C1553.89 391.377 1550.06 375.986 1542.26 362.637L1533.62 367.683ZM1543.89 408.648C1543.89 424.377 1540.33 438.069 1533.35 449.88L1541.96 454.968C1549.95 441.435 1553.89 425.943 1553.89 408.648H1543.89ZM1533.34 449.901C1526.52 461.566 1517.13 470.506 1505.1 476.792L1509.73 485.656C1523.42 478.502 1534.2 468.242 1541.97 454.947L1533.34 449.901ZM1505.07 476.807C1493.19 483.108 1479.8 486.304 1464.79 486.304V496.304C1481.27 496.304 1496.29 492.78 1509.76 485.641L1505.07 476.807ZM1464.79 453.68C1475.59 453.68 1484.87 449.645 1492.33 441.745L1485.06 434.879C1479.46 440.803 1472.81 443.68 1464.79 443.68V453.68ZM1492.28 441.797C1500.18 433.674 1503.77 422.366 1503.77 408.648H1493.77C1493.77 420.658 1490.65 429.126 1485.11 434.827L1492.28 441.797ZM1503.77 408.648C1503.77 394.967 1500.29 383.678 1492.62 375.551L1485.35 382.417C1490.73 388.114 1493.77 396.601 1493.77 408.648H1503.77ZM1492.67 375.605C1485.38 367.656 1476.17 363.616 1465.37 363.616V373.616C1473.38 373.616 1479.91 376.488 1485.3 382.363L1492.67 375.605ZM1465.37 363.616C1454.4 363.616 1445.08 367.633 1437.78 375.605L1445.15 382.363C1450.51 376.511 1457.13 373.616 1465.37 373.616V363.616ZM1437.82 375.554C1430.31 383.526 1426.96 394.845 1426.96 408.648H1436.96C1436.96 396.339 1439.94 387.882 1445.1 382.414L1437.82 375.554ZM1426.96 408.648C1426.96 422.258 1430.21 433.503 1437.44 441.634L1444.91 434.99C1439.85 429.297 1436.96 420.766 1436.96 408.648H1426.96ZM1437.49 441.691C1444.77 449.64 1453.99 453.68 1464.79 453.68V443.68C1456.78 443.68 1450.24 440.808 1444.86 434.933L1437.49 441.691ZM1717.86 345L1714.16 348.358L1714.18 348.388L1714.21 348.418L1717.86 345ZM1734.85 489V494H1739.85V489H1734.85ZM1685.89 489H1680.89V494H1685.89V489ZM1677.54 376.68L1673.89 380.096L1673.89 380.096L1677.54 376.68ZM1632.61 376.68L1636.26 380.096L1636.26 380.096L1632.61 376.68ZM1624.26 489V494H1629.26V489H1624.26ZM1575.01 489H1570.01V494H1575.01V489ZM1575.01 328.296V323.296H1570.01V328.296H1575.01ZM1624.26 328.296H1629.26V323.296H1624.26V328.296ZM1624.26 349.608H1619.26V365.42L1628.35 352.483L1624.26 349.608ZM1644.42 332.904L1646.57 337.416L1646.62 337.397L1646.66 337.376L1644.42 332.904ZM1672.93 331.568C1690.55 331.568 1704.1 337.262 1714.16 348.358L1721.57 341.642C1709.35 328.162 1692.95 321.568 1672.93 321.568V331.568ZM1714.21 348.418C1724.44 359.345 1729.85 374.693 1729.85 395.112H1739.85C1739.85 372.907 1733.93 354.847 1721.51 341.582L1714.21 348.418ZM1729.85 395.112V489H1739.85V395.112H1729.85ZM1734.85 484H1685.89V494H1734.85V484ZM1690.89 489V401.736H1680.89V489H1690.89ZM1690.89 401.736C1690.89 390.131 1687.87 380.407 1681.19 373.264L1673.89 380.096C1678.34 384.857 1680.89 391.837 1680.89 401.736H1690.89ZM1681.19 373.264C1674.53 366.143 1665.63 362.752 1655.08 362.752V372.752C1663.33 372.752 1669.42 375.313 1673.89 380.096L1681.19 373.264ZM1655.08 362.752C1644.52 362.752 1635.62 366.143 1628.96 373.264L1636.26 380.096C1640.74 375.313 1646.82 372.752 1655.08 372.752V362.752ZM1628.96 373.264C1622.28 380.407 1619.26 390.131 1619.26 401.736H1629.26C1629.26 391.837 1631.81 384.857 1636.26 380.096L1628.96 373.264ZM1619.26 401.736V489H1629.26V401.736H1619.26ZM1624.26 484H1575.01V494H1624.26V484ZM1580.01 489V328.296H1570.01V489H1580.01ZM1575.01 333.296H1624.26V323.296H1575.01V333.296ZM1619.26 328.296V349.608H1629.26V328.296H1619.26ZM1628.35 352.483C1632.81 346.137 1638.84 341.108 1646.57 337.416L1642.27 328.392C1633.11 332.764 1625.69 338.871 1620.17 346.733L1628.35 352.483ZM1646.66 337.376C1654.33 333.538 1663.06 331.568 1672.93 331.568V321.568C1661.69 321.568 1651.4 323.822 1642.18 328.432L1646.66 337.376Z" fill="white"/>
</svg>
